<svg width="24" height="25" fill="none" xmlns="http://www.w3.org/2000/svg"><path d="m12 21.5-1.45-1.3c-1.683-1.517-3.075-2.825-4.175-3.925-1.1-1.1-1.975-2.083-2.625-2.95-.65-.883-1.108-1.692-1.375-2.425A6.927 6.927 0 0 1 2 8.65c0-1.567.525-2.875 1.575-3.925C4.625 3.675 5.933 3.15 7.5 3.15c.867 0 1.692.183 2.475.55A5.93 5.93 0 0 1 12 5.25a5.93 5.93 0 0 1 2.025-1.55 5.769 5.769 0 0 1 2.475-.55c1.567 0 2.875.525 3.925 1.575C21.475 5.775 22 7.083 22 8.65c0 .767-.133 1.517-.4 2.25-.25.733-.7 1.542-1.35 2.425-.65.867-1.525 1.85-2.625 2.95s-2.492 2.408-4.175 3.925L12 21.5Zm0-2.7a118.66 118.66 0 0 0 3.95-3.675c1.033-1.033 1.85-1.925 2.45-2.675.6-.767 1.017-1.442 1.25-2.025.233-.6.35-1.192.35-1.775 0-1-.333-1.833-1-2.5s-1.5-1-2.5-1a3.81 3.81 0 0 0-2.175.675c-.667.433-1.125.992-1.375 1.675h-1.9c-.25-.683-.708-1.242-1.375-1.675A3.81 3.81 0 0 0 7.5 5.15c-1 0-1.833.333-2.5 1s-1 1.5-1 2.5c0 .583.117 1.175.35 1.775.233.583.65 1.258 1.25 2.025.6.75 1.417 1.642 2.45 2.675A118.69 118.69 0 0 0 12 18.8Z" fill="#F6F6F6"/></svg>