<svg width="134" height="43" fill="none" xmlns="http://www.w3.org/2000/svg">
    <path
        d="M11.075 23.5V6h4.05v17.5h-4.05Zm11.953 0V6h3.35l10.325 12.6h-1.625V6h4v17.5h-3.325l-10.35-12.6h1.625v12.6h-4Zm23.94 0V6h4.05v14.2h8.776v3.3H46.969Zm16.636 0 7.8-17.5h4l7.825 17.5h-4.25l-6.4-15.45h1.6L67.754 23.5h-4.15Zm3.9-3.75 1.075-3.075h9l1.1 3.075H67.504ZM87.67 23.5v-2.625l10.825-13.05.5 1.475H87.87V6h14.725v2.625l-10.8 13.05-.5-1.475h11.675v3.3h-15.3Zm25.372-10.45h8.425v3.15h-8.425v-3.15Zm.3 7.2h9.525v3.25h-13.55V6h13.225v3.25h-9.2v11Z"
        fill="#fff" />
    <path
        d="M38.629 39.5v-8.4h1.608l3.576 5.928h-.852l3.516-5.928h1.596l.024 8.4h-1.824l-.012-5.604h.336l-2.808 4.716h-.876l-2.868-4.716h.408V39.5h-1.824Zm17.34.144c-.663 0-1.28-.108-1.847-.324a4.439 4.439 0 0 1-1.464-.912 4.282 4.282 0 0 1-.96-1.38 4.379 4.379 0 0 1-.336-1.728c0-.624.112-1.2.336-1.728.232-.528.556-.988.972-1.38a4.439 4.439 0 0 1 1.464-.912 5.026 5.026 0 0 1 1.824-.324c.664 0 1.272.108 1.824.324.56.216 1.044.52 1.452.912a4.194 4.194 0 0 1 1.32 3.108c0 .624-.116 1.204-.348 1.74a4.195 4.195 0 0 1-.972 1.38 4.405 4.405 0 0 1-1.452.9 4.93 4.93 0 0 1-1.812.324Zm-.011-1.656c.376 0 .72-.064 1.032-.192a2.448 2.448 0 0 0 1.392-1.404c.136-.328.204-.692.204-1.092 0-.4-.068-.764-.204-1.092a2.448 2.448 0 0 0-.552-.852 2.351 2.351 0 0 0-.828-.552 2.786 2.786 0 0 0-1.044-.192c-.376 0-.724.064-1.044.192a2.504 2.504 0 0 0-.828.552c-.24.24-.428.524-.564.852a2.98 2.98 0 0 0-.192 1.092c0 .392.064.756.192 1.092.136.328.32.612.552.852.24.24.52.424.84.552.32.128.668.192 1.044.192ZM66.065 39.5l-3.624-8.4h2.1l3.168 7.44h-1.236l3.216-7.44h1.932l-3.636 8.4h-1.92Zm8.058 0v-8.4h1.944v8.4h-1.944Zm7.525-5.016h4.044v1.512h-4.044v-1.512Zm.144 3.456h4.572v1.56H79.86v-8.4h6.348v1.56h-4.416v5.28Zm10.679 1.704a6.999 6.999 0 0 1-1.932-.264c-.616-.184-1.112-.42-1.488-.708l.66-1.464c.36.256.784.468 1.272.636.496.16.996.24 1.5.24.384 0 .692-.036.924-.108.24-.08.416-.188.528-.324a.715.715 0 0 0 .168-.468c0-.224-.088-.4-.264-.528a2.011 2.011 0 0 0-.696-.324 10.5 10.5 0 0 0-.96-.24c-.344-.08-.692-.176-1.044-.288a4.455 4.455 0 0 1-.948-.432 2.18 2.18 0 0 1-.708-.696c-.176-.288-.264-.656-.264-1.104 0-.48.128-.916.384-1.308.264-.4.656-.716 1.176-.948.528-.24 1.188-.36 1.98-.36.528 0 1.048.064 1.56.192.512.12.964.304 1.356.552l-.6 1.476a4.91 4.91 0 0 0-1.176-.492 4.182 4.182 0 0 0-1.152-.168c-.376 0-.684.044-.924.132-.24.088-.412.204-.516.348a.768.768 0 0 0-.156.48c0 .216.088.392.264.528.176.128.408.232.696.312.288.08.604.16.948.24.352.08.7.172 1.044.276.352.104.672.244.96.42.288.176.52.408.696.696.184.288.276.652.276 1.092 0 .472-.132.904-.396 1.296s-.66.708-1.188.948c-.52.24-1.18.36-1.98.36Z"
        fill="#F0B90B" />
    <g filter="url(#a)">
        <path d="M0 33.5h35v4H4.5l-4.5-4Z" fill="#F0B90B" />
    </g>
    <g filter="url(#b)">
        <path d="M134 33.5H99v4h30.5l4.5-4Z" fill="#F0B90B" />
    </g>
    <circle cx="56" cy="35.5" r="1" fill="#F0B90B" />
    <defs>
        <filter id="a" x="0" y="33.5" width="35" height="5" filterUnits="userSpaceOnUse"
            color-interpolation-filters=""="sRGB">
            <feFlood flood-opacity="0" result="BackgroundImageFix" />
            <feBlend in="SourceGraphic" in2="BackgroundImageFix" result="shape" />
            <feColorMatrix in="SourceAlpha" values="0 0 0 0 0 0 0 0 0 0 0 0 0 0 0 0 0 0 127 0" result="hardAlpha" />
            <feOffset dy="1" />
            <feGaussianBlur stdDeviation="2" />
            <feComposite in2="hardAlpha" operator="arithmetic" k2="-1" k3="1" />
            <feColorMatrix values="0 0 0 0 0 0 0 0 0 0 0 0 0 0 0 0 0 0 0.2 0" />
            <feBlend in2="shape" result="effect1_innerShadow_4_18" />
        </filter>
        <filter id="b" x="99" y="33.5" width="35" height="5" filterUnits="userSpaceOnUse"
            color-interpolation-filters="sRGB">
            <feFlood flood-opacity="0" result="BackgroundImageFix" />
            <feBlend in="SourceGraphic" in2="BackgroundImageFix" result="shape" />
            <feColorMatrix in="SourceAlpha" values="0 0 0 0 0 0 0 0 0 0 0 0 0 0 0 0 0 0 127 0" result="hardAlpha" />
            <feOffset dy="1" />
            <feGaussianBlur stdDeviation="2" />
            <feComposite in2="hardAlpha" operator="arithmetic" k2="-1" k3="1" />
            <feColorMatrix values="0 0 0 0 0 0 0 0 0 0 0 0 0 0 0 0 0 0 0.2 0" />
            <feBlend in2="shape" result="effect1_innerShadow_4_18" />
        </filter>
    </defs>
</svg>